<svg width="51" height="51" viewBox="0 0 51 51" fill="none" xmlns="http://www.w3.org/2000/svg">
<circle cx="25.5" cy="25.5" r="25.5" fill="#0460BA" fill-opacity="0.0478584"/>
<path d="M25.3855 29.5L31.8855 36C32.9619 37.0764 34.7091 37.0764 35.7855 36V36C36.8619 34.9236 36.8619 33.1764 35.7855 32.1L29.2855 25.6" stroke="#92BAE1" stroke-width="1.95" stroke-linecap="round" stroke-linejoin="round"/>
<path d="M18.892 19.1L23.442 23.65" stroke="#92BAE1" stroke-width="1.95" stroke-linecap="round" stroke-linejoin="round"/>
<path fill-rule="evenodd" clip-rule="evenodd" d="M37.1908 17.6011C37.222 17.631 37.2454 17.67 37.2571 17.7116C37.8681 19.7487 37.3949 22.0406 35.7855 23.65C34.1592 25.2763 31.8361 25.7417 29.7834 25.1021L18.9323 35.9532C17.8754 37.0101 16.1516 37.0894 15.0583 36.0702C13.9091 35.0003 13.8857 33.2011 14.9855 32.1L25.8834 21.2021C25.2438 19.1494 25.7092 16.8263 27.3355 15.2C28.9449 13.5906 31.2368 13.1174 33.2739 13.7284C33.3155 13.7414 33.3545 13.7635 33.3844 13.7947L33.595 14.0053C33.6964 14.1067 33.6964 14.2718 33.595 14.3732L30.1695 17.8L33.1855 20.816L36.6123 17.3892C36.7137 17.2878 36.8788 17.2878 36.9802 17.3892L37.1908 17.6011V17.6011Z" stroke="#0460BA" stroke-width="1.95" stroke-linecap="round" stroke-linejoin="round"/>
<path fill-rule="evenodd" clip-rule="evenodd" d="M13.8129 15.5809L14.6891 18.2108C14.8659 18.7425 15.3625 19.1 15.9228 19.1H18.8855V16.1373C18.8855 15.5783 18.528 15.0804 17.9963 14.9036L15.3664 14.0274C15.1324 13.9494 14.875 14.0105 14.7008 14.1847L13.9702 14.9153C13.796 15.0895 13.7349 15.3469 13.8129 15.5809V15.5809Z" stroke="#92BAE1" stroke-width="1.95" stroke-linecap="round" stroke-linejoin="round"/>
</svg>
