<svg width="51" height="51" viewBox="0 0 51 51" fill="none" xmlns="http://www.w3.org/2000/svg">
<circle cx="25.5" cy="25.5" r="25.5" fill="#0460BA" fill-opacity="0.0478584"/>
<path d="M37.3 20.4H13.9" stroke="#0460BA" stroke-width="1.95" stroke-linecap="round" stroke-linejoin="round"/>
<path d="M32.75 26.9C35.9809 26.9 38.6 29.5191 38.6 32.75C38.6 35.9809 35.9809 38.6 32.75 38.6C29.5192 38.6 26.9 35.9809 26.9 32.75C26.9 29.5191 29.5192 26.9 32.75 26.9" stroke="#0460BA" stroke-width="1.95" stroke-linecap="round" stroke-linejoin="round"/>
<path d="M29.0749 37.3H17.8C15.6461 37.3 13.9 35.5539 13.9 33.4V17.8C13.9 15.6461 15.6461 13.9 17.8 13.9H33.4C35.5539 13.9 37.3 15.6461 37.3 17.8V29.0749" stroke="#0460BA" stroke-width="1.95" stroke-linecap="round" stroke-linejoin="round"/>
<path d="M33.0384 29.8764V32.9853" stroke="#0460BA" stroke-width="1.95" stroke-linecap="round" stroke-linejoin="round"/>
<path d="M30.5061 32.9853H33.0383" stroke="#0460BA" stroke-width="1.95" stroke-linecap="round" stroke-linejoin="round"/>
<path d="M18.8387 24.95C18.8387 24.9859 18.8096 25.015 18.7737 25.015C18.7378 25.015 18.7087 24.9859 18.7087 24.95C18.7087 24.9141 18.7378 24.885 18.7737 24.885" stroke="#92BAE1" stroke-width="1.95" stroke-linecap="round" stroke-linejoin="round"/>
<path d="M18.7737 24.885C18.8096 24.885 18.8387 24.9141 18.8387 24.95" stroke="#92BAE1" stroke-width="1.95" stroke-linecap="round" stroke-linejoin="round"/>
<path d="M23.39 24.95C23.39 24.9859 23.3609 25.015 23.325 25.015C23.2891 25.015 23.26 24.9859 23.26 24.95C23.26 24.9141 23.2891 24.885 23.325 24.885" stroke="#92BAE1" stroke-width="1.95" stroke-linecap="round" stroke-linejoin="round"/>
<path d="M23.325 24.885C23.3609 24.885 23.39 24.9141 23.39 24.95" stroke="#92BAE1" stroke-width="1.95" stroke-linecap="round" stroke-linejoin="round"/>
<path d="M18.8387 28.85C18.8387 28.8859 18.8096 28.915 18.7737 28.915C18.7378 28.915 18.7087 28.8859 18.7087 28.85C18.7087 28.8141 18.7378 28.785 18.7737 28.785" stroke="#92BAE1" stroke-width="1.95" stroke-linecap="round" stroke-linejoin="round"/>
<path d="M18.7737 28.785C18.8096 28.785 18.8387 28.8141 18.8387 28.85" stroke="#92BAE1" stroke-width="1.95" stroke-linecap="round" stroke-linejoin="round"/>
<path d="M23.39 28.85C23.39 28.8859 23.3609 28.915 23.325 28.915C23.2891 28.915 23.26 28.8859 23.26 28.85C23.26 28.8141 23.2891 28.785 23.325 28.785" stroke="#92BAE1" stroke-width="1.95" stroke-linecap="round" stroke-linejoin="round"/>
<path d="M23.325 28.785C23.3609 28.785 23.39 28.8141 23.39 28.85" stroke="#92BAE1" stroke-width="1.95" stroke-linecap="round" stroke-linejoin="round"/>
<path d="M27.9387 24.95C27.9387 24.9859 27.9096 25.015 27.8737 25.015C27.8378 25.015 27.8087 24.9859 27.8087 24.95C27.8087 24.9141 27.8378 24.885 27.8737 24.885" stroke="#92BAE1" stroke-width="1.95" stroke-linecap="round" stroke-linejoin="round"/>
<path d="M27.8737 24.885C27.9096 24.885 27.9387 24.9141 27.9387 24.95" stroke="#92BAE1" stroke-width="1.95" stroke-linecap="round" stroke-linejoin="round"/>
<path d="M18.8387 32.75C18.8387 32.7859 18.8096 32.815 18.7737 32.815C18.7378 32.815 18.7087 32.7859 18.7087 32.75C18.7087 32.7141 18.7378 32.685 18.7737 32.685" stroke="#92BAE1" stroke-width="1.95" stroke-linecap="round" stroke-linejoin="round"/>
<path d="M18.7737 32.685C18.8096 32.685 18.8387 32.7141 18.8387 32.75" stroke="#92BAE1" stroke-width="1.95" stroke-linecap="round" stroke-linejoin="round"/>
<path d="M23.39 32.75C23.39 32.7859 23.3609 32.815 23.325 32.815C23.2891 32.815 23.26 32.7859 23.26 32.75C23.26 32.7141 23.2891 32.685 23.325 32.685" stroke="#92BAE1" stroke-width="1.95" stroke-linecap="round" stroke-linejoin="round"/>
<path d="M23.325 32.685C23.3609 32.685 23.39 32.7141 23.39 32.75" stroke="#92BAE1" stroke-width="1.95" stroke-linecap="round" stroke-linejoin="round"/>
</svg>
