<svg width="51" height="51" viewBox="0 0 51 51" fill="none" xmlns="http://www.w3.org/2000/svg">
<circle cx="25.5" cy="25.5" r="25.5" fill="#0460BA" fill-opacity="0.0478584"/>
<path d="M24.3 32.1H28.2C29.6365 32.1 30.8 30.9365 30.8 29.5V23C30.8 21.5635 29.6365 20.4 28.2 20.4H21.7C20.2635 20.4 19.1 21.5635 19.1 23V26.9" stroke="#92BAE1" stroke-width="1.95" stroke-linecap="round" stroke-linejoin="round"/>
<path d="M30.8 28.2H34.7C36.1365 28.2 37.3 27.0365 37.3 25.6V16.5C37.3 15.0635 36.1365 13.9 34.7 13.9H25.6C24.1635 13.9 23 15.0635 23 16.5V20.4" stroke="#92BAE1" stroke-width="1.95" stroke-linecap="round" stroke-linejoin="round"/>
<path fill-rule="evenodd" clip-rule="evenodd" d="M21.7 37.3H16.5C15.0635 37.3 13.9 36.1365 13.9 34.7V29.5C13.9 28.0635 15.0635 26.9 16.5 26.9H21.7C23.1365 26.9 24.3 28.0635 24.3 29.5V34.7C24.3 36.1365 23.1365 37.3 21.7 37.3Z" stroke="#0460BA" stroke-width="1.95" stroke-linecap="round" stroke-linejoin="round"/>
</svg>
