<svg width="51" height="51" viewBox="0 0 51 51" fill="none" xmlns="http://www.w3.org/2000/svg">
<circle cx="25.5" cy="25.5" r="25.5" fill="#0460BA" fill-opacity="0.0478584"/>
<path fill-rule="evenodd" clip-rule="evenodd" d="M31.2732 17.3268V23.3978H36.4537C36.7614 23.3908 37.0474 23.5558 37.1953 23.8256C37.3432 24.0955 37.3284 24.4253 37.157 24.6809L30.5712 34.3308C30.3636 34.6344 29.9838 34.7695 29.6311 34.6651C29.2784 34.5608 29.0333 34.2409 29.0242 33.8732V27.7983H23.8463C23.5386 27.8053 23.2527 27.6404 23.1047 27.3705C22.9568 27.1006 22.9716 26.7708 23.143 26.5152L29.7262 16.8692C29.9338 16.5656 30.3136 16.4305 30.6663 16.5349C31.019 16.6392 31.2642 16.9591 31.2732 17.3268V17.3268Z" stroke="#0460BA" stroke-width="1.95" stroke-linecap="round" stroke-linejoin="round"/>
<path d="M21.7 33.4H14.875" stroke="#92BAE1" stroke-width="1.95" stroke-linecap="round" stroke-linejoin="round"/>
<path d="M18.2875 26.25H12.6" stroke="#92BAE1" stroke-width="1.95" stroke-linecap="round" stroke-linejoin="round"/>
<path d="M21.7 19.1H14.875" stroke="#92BAE1" stroke-width="1.95" stroke-linecap="round" stroke-linejoin="round"/>
</svg>
