<svg width="74" height="56" viewBox="0 0 74 56" fill="none" xmlns="http://www.w3.org/2000/svg">
<path d="M18.595 2.12532C23.1317 -0.121188 28.4969 -0.602738 33.3687 0.756931C36.1656 1.52828 38.7934 2.90175 41.0331 4.7466C42.7917 6.18834 44.3001 7.9257 45.5175 9.84608C48.2643 8.95925 51.2781 8.9331 54.0496 9.73496C56.5309 10.4533 58.8141 11.8442 60.5901 13.7224C62.0078 15.2049 63.1012 16.9923 63.7933 18.9229C65.8378 19.5003 67.7539 20.5375 69.3355 21.9596C72.1513 24.448 73.886 28.1217 73.9897 31.8833C74.0956 34.599 73.3803 37.338 71.959 39.6535C69.9225 43.0149 66.4102 45.4386 62.5374 46.1119C61.0059 46.4119 59.4395 46.3124 57.889 46.3298C53.3458 46.3283 48.8026 46.332 44.2595 46.3276C51.9122 41.9 59.5679 37.4752 67.2199 33.0454C58.254 27.8748 49.3004 22.6823 40.3388 17.5037C36.072 15.0327 31.7994 12.5712 27.5355 10.0945C27.5384 12.0548 27.5355 14.0159 27.537 15.9769C37.3627 21.6604 47.1884 27.346 57.0162 33.0258C57.017 33.0374 57.0177 33.06 57.0184 33.0716C47.5816 38.5262 38.147 43.986 28.7102 49.4421C24.9346 51.6297 21.1517 53.8043 17.3819 56C17.3834 48.3431 17.3827 40.6863 17.3819 33.0287C15.4462 33.0309 13.5106 33.0287 11.5749 33.0302C11.5778 37.399 11.5734 41.7678 11.5763 46.1366C8.91151 45.6776 6.38816 44.4268 4.41838 42.5711C2.67931 40.9478 1.36612 38.872 0.649312 36.6022C-0.300391 33.612 -0.207524 30.2985 0.922832 27.3707C2.04303 24.4364 4.18911 21.9088 6.90182 20.329C6.98163 17.3519 7.70207 14.3907 9.01671 11.7178C11.0329 7.57706 14.4603 4.14521 18.595 2.12532Z" fill="white"/>
</svg>
