<svg width="24" height="24" viewBox="0 0 24 24" fill="none" xmlns="http://www.w3.org/2000/svg">
<path fill-rule="evenodd" clip-rule="evenodd" d="M4 3H20C20.5523 3 21 3.44772 21 4V20C21 20.5523 20.5523 21 20 21H4C3.44772 21 3 20.5523 3 20V4C3 3.44772 3.44772 3 4 3ZM5 5V19H19V5H5ZM6 7.5C6 8.32843 6.67157 9 7.5 9C8.32843 9 9 8.32843 9 7.5C9 6.67157 8.32843 6 7.5 6C6.67157 6 6 6.67157 6 7.5ZM8.5 10V17.5H6.5V10H8.5ZM14 9.5C13.266 9.5 12.584 9.865 12 10.43V10H10V17.5H12V13.25C12 12.2835 12.7835 11.5 13.75 11.5C14.7165 11.5 15.5 12.2835 15.5 13.25V17.5H17.5V13.25C17.5 11.179 16.071 9.5 14 9.5Z" fill="white"/>
</svg>
