<svg width="58" height="44" viewBox="0 0 58 44" fill="none" xmlns="http://www.w3.org/2000/svg">
<path d="M14.5745 1.66989C18.1302 -0.0952195 22.3354 -0.47358 26.1539 0.594731C28.346 1.20079 30.4056 2.27995 32.1611 3.72947C33.5395 4.86227 34.7217 6.22733 35.6759 7.73621C37.8288 7.03941 40.191 7.01886 42.3632 7.64889C44.308 8.21329 46.0975 9.30615 47.4896 10.7819C48.6007 11.9467 49.4577 13.3511 50.0002 14.868C51.6026 15.3217 53.1044 16.1366 54.3441 17.254C56.551 19.2091 57.9106 22.0956 57.9919 25.0512C58.075 27.1849 57.5143 29.337 56.4003 31.1563C54.8041 33.7974 52.0513 35.7018 49.0158 36.2308C47.8154 36.4665 46.5877 36.3883 45.3725 36.402C41.8116 36.4008 38.2507 36.4037 34.6898 36.4003C40.688 32.9214 46.6883 29.4448 52.6859 25.9643C45.6585 21.9016 38.6408 17.8218 31.6169 13.7529C28.2726 11.8114 24.9239 9.87739 21.5819 7.93138C21.5842 9.47164 21.5819 11.0125 21.5831 12.5533C29.2843 17.0189 36.9855 21.4861 44.6884 25.9489C44.689 25.958 44.6895 25.9757 44.6901 25.9848C37.2937 30.2706 29.899 34.5604 22.5026 38.8473C19.5433 40.5662 16.5784 42.2748 13.6237 44C13.6248 37.9839 13.6242 31.9678 13.6237 25.9511C12.1065 25.9528 10.5894 25.9511 9.07221 25.9523C9.07448 29.3849 9.07107 32.8175 9.07334 36.2502C6.9847 35.8895 5.00693 34.9068 3.46305 33.4487C2.1 32.1733 1.07075 30.5423 0.50892 28.7589C-0.235441 26.4094 -0.162654 23.806 0.723301 21.5055C1.60129 19.2 3.28336 17.214 5.40954 15.9728C5.47209 13.6336 6.03676 11.3069 7.06715 9.20685C8.64743 5.95341 11.3337 3.25695 14.5745 1.66989Z" fill="#0460BA"/>
</svg>
