<svg width="243" height="44" viewBox="0 0 243 44" fill="none" xmlns="http://www.w3.org/2000/svg">
<path d="M14.5745 1.66989C18.1302 -0.0952195 22.3354 -0.47358 26.1539 0.594731C28.346 1.20079 30.4056 2.27995 32.1611 3.72947C33.5395 4.86227 34.7217 6.22733 35.6759 7.73621C37.8288 7.03941 40.191 7.01886 42.3632 7.64889C44.308 8.21329 46.0975 9.30615 47.4896 10.7819C48.6007 11.9467 49.4577 13.3511 50.0002 14.868C51.6026 15.3217 53.1044 16.1366 54.3441 17.254C56.551 19.2091 57.9106 22.0956 57.9919 25.0512C58.075 27.1849 57.5143 29.337 56.4003 31.1563C54.8041 33.7974 52.0513 35.7018 49.0158 36.2308C47.8154 36.4665 46.5877 36.3883 45.3725 36.402C41.8116 36.4008 38.2507 36.4037 34.6898 36.4003C40.688 32.9214 46.6883 29.4448 52.6859 25.9643C45.6585 21.9016 38.6408 17.8218 31.6169 13.7529C28.2726 11.8114 24.9239 9.87739 21.5819 7.93138C21.5842 9.47164 21.5819 11.0125 21.5831 12.5533C29.2843 17.0189 36.9855 21.4861 44.6884 25.9489C44.689 25.958 44.6895 25.9757 44.6901 25.9848C37.2937 30.2706 29.899 34.5604 22.5026 38.8473C19.5433 40.5662 16.5784 42.2748 13.6237 44C13.6248 37.9839 13.6242 31.9678 13.6237 25.9511C12.1065 25.9528 10.5894 25.9511 9.07221 25.9523C9.07448 29.3849 9.07107 32.8175 9.07334 36.2502C6.9847 35.8895 5.00693 34.9068 3.46305 33.4487C2.1 32.1733 1.07075 30.5423 0.50892 28.7589C-0.235441 26.4094 -0.162654 23.806 0.723301 21.5055C1.60129 19.2 3.28336 17.214 5.40954 15.9728C5.47209 13.6336 6.03676 11.3069 7.06715 9.20685C8.64743 5.95341 11.3337 3.25695 14.5745 1.66989Z" fill="#0460BA"/>
<path d="M78.192 31.234C76.3893 31.234 74.8467 30.8527 73.564 30.09C72.2813 29.3274 71.2933 28.244 70.6 26.84C69.924 25.436 69.586 23.7634 69.586 21.822C69.586 19.898 69.924 18.234 70.6 16.83C71.2933 15.426 72.2813 14.3427 73.564 13.58C74.8467 12.8174 76.3893 12.436 78.192 12.436C79.4573 12.436 80.6187 12.6354 81.676 13.034C82.7507 13.4327 83.6607 14.0134 84.406 14.776L83.574 16.518C82.7767 15.7727 81.9447 15.2354 81.078 14.906C80.2287 14.5594 79.284 14.386 78.244 14.386C76.1813 14.386 74.604 15.036 73.512 16.336C72.42 17.636 71.874 19.4647 71.874 21.822C71.874 24.1967 72.42 26.034 73.512 27.334C74.604 28.634 76.1813 29.284 78.244 29.284C79.284 29.284 80.2287 29.1194 81.078 28.79C81.9447 28.4434 82.7767 27.8974 83.574 27.152L84.406 28.894C83.6607 29.6394 82.7507 30.22 81.676 30.636C80.6187 31.0347 79.4573 31.234 78.192 31.234Z" fill="#0460BA"/>
<path d="M87.7561 31V12.67H89.8881V29.128H99.2221V31H87.7561Z" fill="#0460BA"/>
<path d="M108.63 31.234C106.931 31.234 105.449 30.8527 104.184 30.09C102.936 29.31 101.965 28.218 101.272 26.814C100.596 25.41 100.258 23.746 100.258 21.822C100.258 19.898 100.596 18.234 101.272 16.83C101.948 15.426 102.91 14.3427 104.158 13.58C105.423 12.8174 106.914 12.436 108.63 12.436C110.363 12.436 111.854 12.8174 113.102 13.58C114.367 14.3427 115.338 15.426 116.014 16.83C116.707 18.2167 117.054 19.872 117.054 21.796C117.054 23.72 116.707 25.3927 116.014 26.814C115.321 28.218 114.341 29.31 113.076 30.09C111.828 30.8527 110.346 31.234 108.63 31.234ZM108.63 29.336C110.589 29.336 112.105 28.6774 113.18 27.36C114.255 26.0427 114.792 24.1967 114.792 21.822C114.792 19.4474 114.255 17.61 113.18 16.31C112.105 14.9927 110.589 14.334 108.63 14.334C106.706 14.334 105.207 14.9927 104.132 16.31C103.057 17.61 102.52 19.4474 102.52 21.822C102.52 24.1794 103.057 26.0254 104.132 27.36C105.207 28.6774 106.706 29.336 108.63 29.336Z" fill="#0460BA"/>
<path d="M128.094 31.234C125.684 31.234 123.856 30.6014 122.608 29.336C121.36 28.0534 120.736 26.19 120.736 23.746V12.67H122.868V23.642C122.868 27.438 124.61 29.336 128.094 29.336C131.543 29.336 133.268 27.438 133.268 23.642V12.67H135.4V23.746C135.4 26.19 134.776 28.0534 133.528 29.336C132.297 30.6014 130.486 31.234 128.094 31.234Z" fill="#0460BA"/>
<path d="M139.782 31V12.67H145.97C148.934 12.67 151.222 13.4587 152.834 15.036C154.446 16.596 155.252 18.858 155.252 21.822C155.252 24.786 154.446 27.0567 152.834 28.634C151.222 30.2114 148.934 31 145.97 31H139.782ZM141.914 29.18H145.814C150.598 29.18 152.99 26.7274 152.99 21.822C152.99 16.934 150.598 14.49 145.814 14.49H141.914V29.18Z" fill="#0460BA"/>
<path d="M165.214 31.286C163.776 31.286 162.415 31.104 161.132 30.74C159.867 30.376 158.81 29.882 157.96 29.258L159.13 26.086C159.945 26.658 160.872 27.1087 161.912 27.438C162.97 27.7674 164.07 27.932 165.214 27.932C166.462 27.932 167.355 27.7414 167.892 27.36C168.447 26.9614 168.724 26.4674 168.724 25.878C168.724 25.3754 168.534 24.9767 168.152 24.682C167.771 24.3874 167.104 24.136 166.15 23.928L163.212 23.304C159.936 22.6107 158.298 20.912 158.298 18.208C158.298 17.0467 158.61 16.0327 159.234 15.166C159.858 14.282 160.725 13.5974 161.834 13.112C162.961 12.6267 164.261 12.384 165.734 12.384C167 12.384 168.187 12.566 169.296 12.93C170.406 13.294 171.324 13.8054 172.052 14.464L170.882 17.428C169.461 16.3014 167.736 15.738 165.708 15.738C164.616 15.738 163.767 15.9547 163.16 16.388C162.571 16.804 162.276 17.35 162.276 18.026C162.276 18.5287 162.458 18.936 162.822 19.248C163.186 19.56 163.819 19.8114 164.72 20.002L167.658 20.626C171.021 21.354 172.702 23.0007 172.702 25.566C172.702 26.71 172.39 27.7154 171.766 28.582C171.16 29.4314 170.293 30.0987 169.166 30.584C168.057 31.052 166.74 31.286 165.214 31.286Z" fill="#0460BA"/>
<path d="M175.319 31V12.67H179.349V20.028H187.877V12.67H191.907V31H187.877V23.382H179.349V31H175.319Z" fill="#0460BA"/>
<path d="M204.108 31.286C202.305 31.286 200.719 30.896 199.35 30.116C197.998 29.3187 196.94 28.218 196.178 26.814C195.432 25.3927 195.06 23.7287 195.06 21.822C195.06 19.9154 195.432 18.26 196.178 16.856C196.94 15.4347 197.998 14.334 199.35 13.554C200.702 12.774 202.288 12.384 204.108 12.384C205.928 12.384 207.514 12.774 208.866 13.554C210.235 14.334 211.292 15.4347 212.038 16.856C212.8 18.26 213.182 19.9067 213.182 21.796C213.182 23.7027 212.8 25.3667 212.038 26.788C211.292 28.2094 210.235 29.3187 208.866 30.116C207.514 30.896 205.928 31.286 204.108 31.286ZM204.108 27.854C205.633 27.854 206.82 27.3254 207.67 26.268C208.536 25.1934 208.97 23.7114 208.97 21.822C208.97 19.9154 208.545 18.442 207.696 17.402C206.846 16.3447 205.65 15.816 204.108 15.816C202.6 15.816 201.412 16.3447 200.546 17.402C199.696 18.442 199.272 19.9154 199.272 21.822C199.272 23.7114 199.696 25.1934 200.546 26.268C201.412 27.3254 202.6 27.854 204.108 27.854Z" fill="#0460BA"/>
<path d="M220.939 31L214.413 12.67H218.547L222.759 25.202L227.205 12.67H230.117L234.433 25.41L238.801 12.67H242.701L236.123 31H232.847L228.557 18.832L224.215 31H220.939Z" fill="#0460BA"/>
</svg>
